PathFileType	4	(X/Y/Z)	SUBJ63_1_walk_RCNL2025.trc
DataRate	CameraRate	NumFrames	NumMarkers	Units	OrigDataRate	OrigDataStartFrame	OrigNumFrames
100	100	6	25	mm	100	120	238
Frame#	Time	R_Shoulder			L_Shoulder			C7			J_Notch			R_Elbow			L_Elbow			R_Wrist			L_Wrist			R_Asis			L_Asis			Sacral			Thoracic			Sternum			R_Thigh_Lateral			R_Knee_Lateral			R_Shank_Lateral			R_Ankle_Lateral			R_Heel			R_Toe			L_Thigh_Lateral			L_Knee_Lateral			L_Shank_Lateral			L_Ankle_Lateral			L_Heel			L_Toe		
		X1	Y1	Z1	X2	Y2	Z2	X3	Y3	Z3	X4	Y4	Z4	X5	Y5	Z5	X6	Y6	Z6	X7	Y7	Z7	X8	Y8	Z8	X9	Y9	Z9	X10	Y10	Z10	X11	Y11	Z11	X12	Y12	Z12	X13	Y13	Z13	X14	Y14	Z14	X15	Y15	Z15	X16	Y16	Z16	X17	Y17	Z17	X18	Y18	Z18	X19	Y19	Z19	X20	Y20	Z20	X21	Y21	Z21	X22	Y22	Z22	X23	Y23	Z23	X24	Y24	Z24	X25	Y25	Z25
120	1.19000000	734.194336	1277.717285	-112.166542	725.314880	1297.018921	-445.092621	648.624146	1351.691406	-276.294647	766.613098	1244.651245	-284.242462	686.806152	995.087036	-17.559866	667.747803	1002.440430	-542.812561	754.118103	778.013733	17.204421	777.421967	803.673096	-564.192017	783.454346	848.042297	-170.705032	773.803040	837.160461	-423.818726	551.628052	844.053101	-291.913422	560.384705	1173.603882	-282.403290	811.073792	1062.190308	-288.922516	738.069397	498.549774	-119.824486	731.884033	442.521912	-169.584778	705.048889	261.289368	-127.035919	674.752258	56.445591	-209.573242	628.190430	56.781075	-257.541931	789.667786	42.491959	-217.234238	793.528748	473.127563	-522.049133	802.314087	446.900055	-456.636566	683.273010	313.355713	-488.035339	546.939880	172.834564	-412.063721	511.092407	196.820526	-353.470581	620.428894	83.868523	-422.035339
121	1.20000000	749.740784	1280.094360	-112.552872	736.886597	1298.318237	-445.802948	662.613892	1353.187134	-276.014862	780.619324	1246.532104	-285.183868	705.517883	997.264832	-17.099207	675.312012	1003.925476	-542.234741	776.203888	780.836395	15.576220	778.964630	802.448700	-568.086609	797.613647	848.680542	-169.622574	788.332642	840.834229	-422.683533	566.149292	845.861877	-291.219086	574.736206	1174.818726	-280.445251	825.137329	1064.951782	-289.913605	743.739929	498.961029	-120.159927	735.304871	442.877502	-169.854721	706.468323	261.656708	-127.370148	674.952576	56.785015	-209.859390	628.644775	57.141438	-258.063354	789.794617	42.492004	-217.154785	817.168640	477.882080	-520.464661	826.399414	451.956085	-454.989960	714.328369	312.293945	-486.897400	587.323181	162.143448	-411.106049	549.123352	183.814529	-353.127899	667.387024	79.113373	-420.054321
122	1.21000000	765.132202	1282.195679	-112.953270	748.265320	1299.240479	-446.525543	676.495728	1354.247559	-275.787781	794.581055	1248.056274	-286.173859	724.244507	999.157654	-16.553209	682.695923	1005.106384	-541.642578	798.499146	783.507599	14.011461	780.295227	801.281372	-572.095093	811.635071	848.933655	-168.473907	803.018860	843.938843	-421.255066	580.742554	847.254150	-290.968475	589.073486	1175.593750	-278.498230	839.203674	1067.486450	-290.922211	749.020081	499.362274	-120.411362	738.474915	443.281006	-170.052277	707.516724	262.156342	-127.662323	675.196777	57.191151	-210.240173	629.267517	57.619240	-258.797089	790.003235	42.481308	-217.086472	840.229919	482.203491	-518.874084	849.531921	456.423889	-453.289490	745.486328	309.951813	-485.638489	628.748474	150.850449	-409.939972	588.572083	169.912094	-352.419739	715.013367	74.388100	-418.258606
123	1.22000000	780.404358	1283.947266	-113.362366	759.518555	1299.736450	-447.228790	690.311279	1354.850464	-275.598114	808.513062	1249.173218	-287.186981	743.000732	1000.702759	-15.921863	689.964355	1005.945435	-541.036011	820.976501	785.972992	12.531680	781.457306	800.113098	-576.181824	825.487488	848.758667	-167.302841	817.875977	846.357727	-419.608185	595.378540	848.230408	-291.135010	603.401367	1175.922729	-276.576447	853.305725	1069.680908	-291.933990	753.905640	499.759003	-120.575249	741.462219	443.740479	-170.180664	708.269897	262.784821	-127.946129	675.492676	57.676525	-210.751572	630.021667	58.265842	-259.727814	790.309998	42.461655	-217.042618	862.658142	486.018250	-517.265625	871.702637	460.169617	-451.549194	776.799133	306.430969	-484.274780	671.226746	139.273911	-408.625000	629.501160	155.410385	-351.346527	763.197449	70.007828	-416.843842
124	1.23000000	795.594971	1285.290649	-113.779671	770.721619	1299.770874	-447.888367	704.100464	1354.994873	-275.436096	822.427063	1249.848755	-288.200043	761.808044	1001.860291	-15.216100	697.179016	1006.418457	-540.420654	843.605194	788.194702	11.151601	782.488251	798.899292	-580.312103	839.142700	848.129944	-166.155472	832.919800	848.007263	-417.840698	610.032043	848.801208	-291.664459	617.721680	1175.815186	-274.705658	867.463440	1071.432983	-292.937195	758.461853	500.155518	-120.671211	744.378113	444.258301	-170.259048	708.833191	263.538513	-128.271774	675.848938	58.254269	-211.431885	630.877319	59.125843	-260.848206	790.714233	42.433868	-217.022812	884.342102	489.248962	-515.626038	892.893188	463.096252	-449.787476	808.246643	301.959930	-482.845276	714.748413	127.738419	-407.242065	671.921753	140.645981	-349.978180	811.832581	66.269875	-415.917999
125	1.24000000	810.740051	1286.184204	-114.207664	781.953369	1299.324097	-448.489319	717.898315	1354.697754	-275.297638	836.334595	1250.066406	-289.195465	780.690979	1002.617126	-14.456373	704.396606	1006.517212	-539.806335	866.350891	790.151306	9.880498	783.423096	797.612457	-584.452209	852.581482	847.050537	-165.074936	848.164368	848.835510	-416.063080	624.689270	848.983093	-292.481934	632.033508	1175.292603	-272.921417	881.681519	1072.657349	-293.921051	762.812195	500.553375	-120.738594	747.364746	444.826111	-170.322311	709.323608	264.408112	-128.699036	676.270447	58.935841	-212.313126	631.828430	60.217033	-262.169922	791.197144	42.398960	-217.014938	905.129028	491.799744	-513.949402	913.074036	465.142242	-448.026489	839.729187	296.857574	-481.406982	759.260254	116.579666	-405.884583	715.769165	125.994278	-348.443085	860.794983	63.456245	-415.496002
